<?xml version="1.0" standalone="no"?>
<!DOCTYPE svg PUBLIC "-//W3C//DTD SVG 20010904//EN"
 "http://www.w3.org/TR/2001/REC-SVG-20010904/DTD/svg10.dtd">
<svg version="1.0" xmlns="http://www.w3.org/2000/svg"
 width="96.000000pt" height="96.000000pt" viewBox="0 0 96.000000 96.000000"
 preserveAspectRatio="xMidYMid meet">

<g transform="translate(0.000000,96.000000) scale(0.100000,-0.100000)"
fill="#000000" stroke="none">
<path d="M160 920 c-23 -23 -25 -51 -9 -83 23 -43 57 -49 89 -15 38 41 12 118
-40 118 -11 0 -29 -9 -40 -20z"/>
<path d="M280 870 l0 -30 280 0 280 0 0 -280 0 -280 -260 0 -260 0 0 -109 c0
-131 17 -160 32 -56 3 18 12 20 86 23 l82 3 0 -46 c0 -27 -6 -52 -14 -61 -19
-18 -142 -20 -149 -1 -4 9 -8 8 -16 -3 -9 -13 -12 -12 -25 5 -13 17 -15 70
-16 333 l0 312 48 0 c62 0 226 52 230 73 4 19 -53 34 -72 18 -26 -21 -122 -24
-219 -6 -105 20 -149 15 -199 -25 -23 -17 -27 -32 -38 -120 -16 -130 -11 -244
13 -267 16 -16 17 -15 17 21 0 40 38 277 46 285 14 14 13 -20 -6 -126 -15 -90
-20 -166 -20 -299 -1 -195 -6 -214 -54 -214 -14 0 -26 -4 -26 -10 0 -7 147
-10 420 -10 273 0 420 3 420 10 0 6 -12 10 -26 10 -40 0 -54 23 -69 112 -8 46
-15 84 -15 86 0 1 34 2 75 2 l75 0 0 30 c0 17 -4 30 -10 30 -6 0 -10 100 -10
280 0 180 4 280 10 280 6 0 10 14 10 30 l0 30 -310 0 -310 0 0 -30z m-57 -497
c-9 -58 -8 -301 1 -331 6 -19 4 -22 -23 -22 -28 0 -30 3 -26 28 2 15 9 88 15
162 13 171 19 210 31 210 7 0 7 -18 2 -47z m297 -183 l0 -30 -80 0 c-44 0 -80
3 -80 8 0 4 3 17 6 30 6 20 12 22 80 22 l74 0 0 -30z m194 8 c3 -13 6 -26 6
-30 0 -5 -36 -8 -80 -8 l-80 0 0 30 0 30 74 0 c68 0 74 -2 80 -22z m18 -107
c10 -59 -4 -71 -82 -71 -75 0 -90 12 -90 75 l0 46 82 -3 82 -3 8 -44z"/>
</g>
</svg>
